<?xml version="1.0" standalone="no"?>
<!DOCTYPE svg PUBLIC "-//W3C//DTD SVG 20010904//EN"
 "http://www.w3.org/TR/2001/REC-SVG-20010904/DTD/svg10.dtd">
<svg version="1.0" xmlns="http://www.w3.org/2000/svg"
 width="256.000000pt" height="256.000000pt" viewBox="0 0 256.000000 256.000000"
 preserveAspectRatio="xMidYMid meet">
<metadata>
Created by potrace 1.11, written by Peter Selinger 2001-2013
</metadata>
<g transform="translate(0.000000,256.000000) scale(0.100000,-0.100000)"
fill="#000000" stroke="none">
<path d="M813 2075 c-254 -256 -466 -465 -470 -465 -5 0 -33 26 -64 58 -30 31
-65 66 -77 76 l-22 19 -83 -79 -82 -79 84 -81 84 -81 -83 -82 -83 -82 632
-632 632 -631 449 449 450 450 102 -102 103 -101 78 80 79 81 -101 101 -102
102 102 102 103 102 -630 630 c-346 346 -631 630 -634 630 -3 0 -214 -209
-467 -465z"/>
</g>
</svg>
